<svg width="21" height="18" viewBox="0 0 21 18" fill="none" xmlns="http://www.w3.org/2000/svg">
<path fill-rule="evenodd" clip-rule="evenodd" d="M20.4148 1.44204C20.4148 1.05959 20.2629 0.692799 19.9924 0.422364C19.722 0.151929 19.3552 0 18.9728 0H1.66828C1.28583 0 0.919037 0.151929 0.648602 0.422364C0.378166 0.692799 0.226238 1.05959 0.226238 1.44204C0.226238 1.82449 0.378166 2.19128 0.648602 2.46172C0.919037 2.73215 1.28583 2.88408 1.66828 2.88408H18.9728C19.3552 2.88408 19.722 2.73215 19.9924 2.46172C20.2629 2.19128 20.4148 1.82449 20.4148 1.44204Z" fill="white"/>
<path fill-rule="evenodd" clip-rule="evenodd" d="M20.4148 8.652C20.4148 8.26955 20.2629 7.90276 19.9924 7.63232C19.722 7.36189 19.3552 7.20996 18.9728 7.20996H1.66828C1.28583 7.20996 0.919037 7.36189 0.648602 7.63232C0.378166 7.90276 0.226238 8.26955 0.226238 8.652C0.226238 9.03445 0.378166 9.40124 0.648602 9.67168C0.919037 9.94211 1.28583 10.094 1.66828 10.094H18.9728C19.3552 10.094 19.722 9.94211 19.9924 9.67168C20.2629 9.40124 20.4148 9.03445 20.4148 8.652Z" fill="white"/>
<path fill-rule="evenodd" clip-rule="evenodd" d="M20.4148 15.8624C20.4148 15.48 20.2629 15.1132 19.9924 14.8428C19.722 14.5723 19.3552 14.4204 18.9728 14.4204H10.3205C9.93806 14.4204 9.57128 14.5723 9.30084 14.8428C9.03041 15.1132 8.87848 15.48 8.87848 15.8624C8.87848 16.2449 9.03041 16.6117 9.30084 16.8821C9.57128 17.1526 9.93806 17.3045 10.3205 17.3045H18.9728C19.3552 17.3045 19.722 17.1526 19.9924 16.8821C20.2629 16.6117 20.4148 16.2449 20.4148 15.8624Z" fill="white"/>
</svg>
