<svg width="24" height="23" viewBox="0 0 24 23" fill="none" xmlns="http://www.w3.org/2000/svg">
<path d="M9.20696 14.1605C10.257 15.1313 11.4878 15.9211 12.8481 16.4813L13.4536 16.73L15.3145 14.9075C15.7765 14.4552 16.445 14.2595 17.0901 14.39L21.5981 15.3001C22.3611 15.4565 22.906 16.1056 22.906 16.8571V19.9868C22.906 21.1062 21.9656 22.013 20.8048 22.013H19.8073C15.2176 22.013 10.6886 20.5471 7.26329 17.6018C6.98096 17.36 6.70679 17.1091 6.43963 16.8526L6.48279 16.8942C6.21563 16.6366 5.95663 16.3722 5.70579 16.1C2.65029 12.7981 1.13013 8.43084 1.13013 4.00509V3.04321C1.13013 1.92384 2.07046 1.01709 3.23129 1.01709H6.47696C7.25629 1.01709 7.92946 1.54246 8.09163 2.27821L9.03663 6.62521C9.17079 7.24621 8.96896 7.89196 8.49996 8.33746L6.60996 10.1318L6.86779 10.7157C7.44879 12.0263 8.19896 13.148 9.20696 14.1605Z" stroke="white" stroke-width="1.5" stroke-miterlimit="10" stroke-linecap="round" stroke-linejoin="round"/>
</svg>
