<svg width="24" height="23" viewBox="0 0 24 23" fill="none" xmlns="http://www.w3.org/2000/svg">
<path d="M6.94478 10.0015H4.61145C2.67828 10.0015 1.11145 8.49059 1.11145 6.62646V4.37647C1.11145 2.51234 2.67828 1.00146 4.61145 1.00146H6.94478C8.87795 1.00146 10.4448 2.51234 10.4448 4.37647V6.62646C10.4448 8.49059 8.87795 10.0015 6.94478 10.0015Z" stroke="white" stroke-width="1.5" stroke-miterlimit="10" stroke-linecap="round" stroke-linejoin="round"/>
<path d="M19.3885 10.0015H17.0551C15.122 10.0015 13.5551 8.49059 13.5551 6.62646V4.37647C13.5551 2.51234 15.122 1.00146 17.0551 1.00146H19.3885C21.3216 1.00146 22.8884 2.51234 22.8884 4.37647V6.62646C22.8884 8.49059 21.3216 10.0015 19.3885 10.0015Z" stroke="white" stroke-width="1.5" stroke-miterlimit="10" stroke-linecap="round" stroke-linejoin="round"/>
<path d="M6.94478 21.9985H4.61145C2.67828 21.9985 1.11145 20.4876 1.11145 18.6235V16.3735C1.11145 14.5093 2.67828 12.9985 4.61145 12.9985H6.94478C8.87795 12.9985 10.4448 14.5093 10.4448 16.3735V18.6235C10.4448 20.4876 8.87795 21.9985 6.94478 21.9985Z" stroke="white" stroke-width="1.5" stroke-miterlimit="10" stroke-linecap="round" stroke-linejoin="round"/>
<path d="M19.3885 21.9985H17.0551C15.122 21.9985 13.5551 20.4876 13.5551 18.6235V16.3735C13.5551 14.5093 15.122 12.9985 17.0551 12.9985H19.3885C21.3216 12.9985 22.8884 14.5093 22.8884 16.3735V18.6235C22.8884 20.4876 21.3216 21.9985 19.3885 21.9985Z" stroke="white" stroke-width="1.5" stroke-miterlimit="10" stroke-linecap="round" stroke-linejoin="round"/>
</svg>
