<svg width="50" height="50" viewBox="0 0 50 50" fill="none" xmlns="http://www.w3.org/2000/svg">
<path d="M0 24.8824C1.19675e-06 11.1931 11.0973 0.0957935 24.7866 0.0957947C38.4758 0.0957959 49.5732 11.1931 49.5732 24.8824C49.5731 38.5716 38.4758 49.6689 24.7866 49.6689C11.0973 49.6689 -1.19675e-06 38.5716 0 24.8824Z" fill="#353535"/>
<path d="M15.1648 23.6412C14.4894 24.3166 14.4894 25.4115 15.1648 26.0868L20.9291 31.8512C21.6044 32.5265 22.6994 32.5265 23.3747 31.8512C24.05 31.1758 24.05 30.0809 23.3747 29.4056L20.5625 26.5933L33.6805 26.5933C34.6356 26.5933 35.4098 25.8191 35.4098 24.864C35.4098 23.909 34.6356 23.1348 33.6805 23.1348L20.5625 23.1347L23.3747 20.3225C24.05 19.6472 24.05 18.5523 23.3747 17.8769C22.6994 17.2016 21.6044 17.2016 20.9291 17.8769L15.1648 23.6412Z" fill="white"/>
</svg>
