<svg width="50" height="50" viewBox="0 0 50 50" fill="none" xmlns="http://www.w3.org/2000/svg">
<path d="M49.9999 24.8825C49.9999 38.5718 38.9026 49.6691 25.2133 49.6691C11.5241 49.6691 0.426758 38.5718 0.426758 24.8825C0.426758 11.1933 11.5241 0.0959473 25.2133 0.0959473C38.9026 0.0959473 49.9999 11.1933 49.9999 24.8825Z" fill="#353535"/>
<path d="M34.8359 26.1236C35.5112 25.4483 35.5112 24.3534 34.8359 23.6781L29.0716 17.9137C28.3962 17.2384 27.3013 17.2384 26.626 17.9137C25.9506 18.5891 25.9506 19.684 26.626 20.3593L29.4382 23.1716L16.3201 23.1715C15.3651 23.1715 14.5908 23.9458 14.5908 24.9008C14.5908 25.8559 15.3651 26.6301 16.3201 26.6301L29.4382 26.6301L26.626 29.4424C25.9506 30.1177 25.9506 31.2126 26.626 31.888C27.3013 32.5633 28.3962 32.5633 29.0716 31.888L34.8359 26.1236Z" fill="white"/>
</svg>
